<svg width="443" height="358" fill="none" xmlns="http://www.w3.org/2000/svg"><path opacity=".1" d="M53.29 41.735C57.326 17.647 78.176 0 102.601 0h289.682c27.614 0 50 22.386 50 50v258c0 27.614-22.386 50-50 50H59.361c-30.915 0-54.422-27.775-49.312-58.265l43.24-258z" fill="#2D9CDB"/><path d="M411.599 316.971c-3.571 9.44-19.415 12.194-35.39 6.152-15.975-6.042-26.03-18.593-22.46-28.033 3.57-9.439 19.415-12.193 35.39-6.151 15.975 6.042 26.03 18.593 22.46 28.032zm-302.873-69.26c-60.535 12.206-75.159-51.918-33.768-126.021 93.996-140.568 242.448-98.826 265.087-71.03 22.64 27.795 4.446 61.137-82.793 75.733-87.239 14.597-72.859 106.059-148.526 121.318z" stroke="#fff" stroke-width="1.5"/></svg>