<svg width="222" height="35" fill="none" xmlns="http://www.w3.org/2000/svg"><path d="M70.58 10.84h5.58c.933 0 1.833.147 2.7.44.867.28 1.633.713 2.3 1.3.667.587 1.2 1.327 1.6 2.22.4.88.6 1.92.6 3.12 0 1.213-.233 2.267-.7 3.16a6.712 6.712 0 01-1.78 2.2 7.715 7.715 0 01-2.42 1.3c-.88.28-1.747.42-2.6.42h-5.28V10.84zm4.4 11.88a9.13 9.13 0 002.22-.26c.707-.187 1.32-.467 1.84-.84.52-.387.927-.88 1.22-1.48.307-.613.46-1.353.46-2.22 0-.853-.133-1.587-.4-2.2-.267-.613-.64-1.107-1.12-1.48a4.335 4.335 0 00-1.68-.84 7.553 7.553 0 00-2.12-.28h-2.3v9.6h1.88zm16.556.96h-.06c-.347.547-.787.947-1.32 1.2a4.24 4.24 0 01-1.76.36c-.44 0-.874-.06-1.3-.18-.414-.12-.787-.3-1.12-.54-.32-.24-.58-.54-.78-.9-.2-.36-.3-.78-.3-1.26 0-.52.093-.96.28-1.32.186-.373.433-.68.74-.92.32-.253.686-.453 1.1-.6a6.91 6.91 0 011.28-.32c.453-.08.906-.127 1.36-.14.453-.027.88-.04 1.28-.04h.6v-.26c0-.6-.207-1.047-.62-1.34-.414-.307-.94-.46-1.58-.46-.507 0-.98.093-1.42.28-.44.173-.82.413-1.14.72l-1.26-1.26a4.662 4.662 0 011.86-1.18c.72-.24 1.46-.36 2.22-.36.68 0 1.253.08 1.72.24.466.147.853.34 1.16.58.306.24.54.52.7.84.173.307.293.62.36.94.08.32.126.633.14.94.013.293.02.553.02.78V25h-2.16v-1.32zm-.14-2.98h-.5c-.334 0-.707.013-1.12.04a5.594 5.594 0 00-1.18.2 2.46 2.46 0 00-.92.44c-.254.187-.38.453-.38.8 0 .227.046.42.14.58.106.147.24.273.4.38.16.107.34.187.54.24.2.04.4.06.6.06.826 0 1.433-.193 1.82-.58.4-.4.6-.94.6-1.62v-.54zm3.762-3.26V15.4h1.98v-2.78h2.4v2.78h2.64v2.04h-2.64v4.2c0 .48.087.86.26 1.14.187.28.547.42 1.08.42.213 0 .447-.02.7-.06a1.56 1.56 0 00.6-.24v2.02c-.253.12-.567.2-.94.24-.36.053-.68.08-.96.08-.64 0-1.167-.073-1.58-.22a2.11 2.11 0 01-.96-.62 2.672 2.672 0 01-.48-1.08c-.08-.427-.12-.92-.12-1.48v-4.4h-1.98zm14.893 6.24h-.06c-.346.547-.786.947-1.32 1.2-.533.24-1.12.36-1.76.36-.44 0-.873-.06-1.3-.18-.413-.12-.786-.3-1.12-.54-.32-.24-.58-.54-.78-.9-.2-.36-.3-.78-.3-1.26 0-.52.094-.96.28-1.32.187-.373.434-.68.74-.92.32-.253.687-.453 1.1-.6a6.93 6.93 0 011.28-.32c.454-.08.907-.127 1.36-.14.454-.027.88-.04 1.28-.04h.6v-.26c0-.6-.206-1.047-.62-1.34-.413-.307-.94-.46-1.58-.46a3.6 3.6 0 00-1.42.28c-.44.173-.82.413-1.14.72l-1.26-1.26a4.672 4.672 0 011.86-1.18c.72-.24 1.46-.36 2.22-.36.68 0 1.254.08 1.72.24.467.147.854.34 1.16.58.307.24.54.52.7.84.174.307.294.62.36.94.08.32.127.633.14.94.014.293.02.553.02.78V25h-2.16v-1.32zm-.14-2.98h-.5c-.333 0-.706.013-1.12.04a5.606 5.606 0 00-1.18.2 2.46 2.46 0 00-.92.44c-.253.187-.38.453-.38.8 0 .227.047.42.14.58.107.147.24.273.4.38.16.107.34.187.54.24.2.04.4.06.6.06.827 0 1.434-.193 1.82-.58.4-.4.6-.94.6-1.62v-.54zm3.523-9.86h2.76l2.66 10.2h.04l3.18-10.2h2.48l3.12 10.2h.04l2.78-10.2h2.56L128.934 25h-2.4l-3.28-10.78h-.04L119.934 25h-2.32l-4.18-14.16zm26.246 12.84h-.06c-.346.547-.786.947-1.32 1.2-.533.24-1.12.36-1.76.36-.44 0-.873-.06-1.3-.18-.413-.12-.786-.3-1.12-.54-.32-.24-.58-.54-.78-.9-.2-.36-.3-.78-.3-1.26 0-.52.094-.96.28-1.32.187-.373.434-.68.74-.92.32-.253.687-.453 1.1-.6a6.93 6.93 0 011.28-.32c.454-.08.907-.127 1.36-.14.454-.027.88-.04 1.28-.04h.6v-.26c0-.6-.206-1.047-.62-1.34-.413-.307-.94-.46-1.58-.46a3.6 3.6 0 00-1.42.28c-.44.173-.82.413-1.14.72l-1.26-1.26a4.672 4.672 0 011.86-1.18c.72-.24 1.46-.36 2.22-.36.68 0 1.254.08 1.72.24.467.147.854.34 1.16.58.307.24.54.52.7.84.174.307.294.62.36.94.08.32.127.633.14.94.014.293.02.553.02.78V25h-2.16v-1.32zm-.14-2.98h-.5c-.333 0-.706.013-1.12.04a5.606 5.606 0 00-1.18.2 2.46 2.46 0 00-.92.44c-.253.187-.38.453-.38.8 0 .227.047.42.14.58.107.147.24.273.4.38.16.107.34.187.54.24.2.04.4.06.6.06.827 0 1.434-.193 1.82-.58.4-.4.6-.94.6-1.62v-.54zm4.883-5.3h2.4v1.52h.04c.266-.56.646-.993 1.14-1.3.493-.307 1.06-.46 1.7-.46.146 0 .286.013.42.04.146.027.293.06.44.1v2.32a4.79 4.79 0 00-.6-.12 2.673 2.673 0 00-.56-.06c-.56 0-1.014.107-1.36.32-.334.2-.594.433-.78.7a2.62 2.62 0 00-.36.8c-.054.267-.08.467-.08.6V25h-2.4v-9.6zm9.341 5.64c.08.72.36 1.28.84 1.68.48.4 1.06.6 1.74.6.6 0 1.1-.12 1.5-.36a4.263 4.263 0 001.08-.94l1.72 1.3c-.56.693-1.186 1.187-1.88 1.48-.693.293-1.42.44-2.18.44-.72 0-1.4-.12-2.04-.36a4.896 4.896 0 01-1.66-1.02 5.009 5.009 0 01-1.12-1.58 5.271 5.271 0 01-.4-2.08c0-.76.134-1.447.4-2.06.28-.627.654-1.16 1.12-1.6.467-.44 1.02-.78 1.66-1.02.64-.24 1.32-.36 2.04-.36.667 0 1.274.12 1.82.36.56.227 1.034.56 1.42 1 .4.44.707.987.92 1.64.227.64.34 1.38.34 2.22v.66h-7.32zm4.92-1.8c-.013-.707-.233-1.26-.66-1.66-.426-.413-1.02-.62-1.78-.62-.72 0-1.293.207-1.72.62-.413.413-.666.967-.76 1.66h4.92zm7.045-2.5h.04c.186-.4.513-.76.98-1.08.48-.333 1.093-.5 1.84-.5.64 0 1.18.107 1.62.32.453.213.82.493 1.1.84.28.347.48.747.6 1.2.12.453.18.927.18 1.42V25h-2.4v-4.86c0-.267-.014-.56-.04-.88a2.92 2.92 0 00-.22-.92 1.576 1.576 0 00-.52-.72c-.24-.2-.567-.3-.98-.3-.4 0-.74.067-1.02.2a2.058 2.058 0 00-.68.54c-.174.227-.3.487-.38.78-.08.293-.12.6-.12.92V25h-2.4V9.88h2.4v6.86zm8.604 3.46c0-.76.133-1.447.4-2.06a4.93 4.93 0 011.12-1.6c.467-.44 1.02-.78 1.66-1.02.64-.24 1.32-.36 2.04-.36s1.4.12 2.04.36c.64.24 1.193.58 1.66 1.02.467.44.833.973 1.1 1.6.28.613.42 1.3.42 2.06s-.14 1.453-.42 2.08a4.744 4.744 0 01-1.1 1.58c-.467.44-1.02.78-1.66 1.02-.64.24-1.32.36-2.04.36s-1.4-.12-2.04-.36a4.896 4.896 0 01-1.66-1.02 4.993 4.993 0 01-1.12-1.58c-.267-.627-.4-1.32-.4-2.08zm2.4 0c0 .373.06.733.18 1.08.133.347.32.653.56.92a2.786 2.786 0 002.08.88c.44 0 .833-.08 1.18-.24.347-.16.64-.373.88-.64a2.52 2.52 0 00.56-.92c.133-.347.2-.707.2-1.08a2.99 2.99 0 00-.2-1.08 2.52 2.52 0 00-.56-.92 2.672 2.672 0 00-.88-.64c-.347-.16-.74-.24-1.18-.24a2.786 2.786 0 00-2.08.88c-.24.267-.427.573-.56.92-.12.347-.18.707-.18 1.08zM195.78 25h-2.28v-1.54h-.04c-.227.48-.573.9-1.04 1.26-.467.347-1.1.52-1.9.52-.64 0-1.187-.1-1.64-.3-.44-.213-.8-.493-1.08-.84a3.37 3.37 0 01-.6-1.22 5.526 5.526 0 01-.18-1.42V15.4h2.4v4.86c0 .267.013.567.04.9.027.32.093.627.2.92.12.28.293.52.52.72.24.187.573.28 1 .28.4 0 .733-.067 1-.2.28-.133.507-.313.68-.54.187-.227.32-.487.4-.78.08-.293.12-.6.12-.92V15.4h2.4V25zm7.845-6.94c-.467-.653-1.094-.98-1.88-.98-.32 0-.634.08-.94.24-.307.16-.46.42-.46.78 0 .293.126.507.38.64.253.133.573.247.96.34l1.24.3c.453.093.873.247 1.26.46.386.2.706.48.96.84.253.36.38.853.38 1.48 0 .573-.127 1.06-.38 1.46-.24.387-.56.7-.96.94-.387.24-.827.413-1.32.52a6.99 6.99 0 01-1.48.16 6.353 6.353 0 01-2.06-.32c-.627-.213-1.187-.6-1.68-1.16l1.6-1.5c.306.347.633.633.98.86.36.213.793.32 1.3.32.173 0 .353-.02.54-.06.186-.04.36-.107.52-.2.16-.093.286-.207.38-.34a.833.833 0 00.16-.5c0-.333-.127-.58-.38-.74a3.217 3.217 0 00-.96-.38c-.387-.107-.807-.2-1.26-.28a5.42 5.42 0 01-1.24-.42 2.713 2.713 0 01-.96-.82c-.254-.347-.38-.827-.38-1.44 0-.533.106-.993.32-1.38.226-.4.52-.727.88-.98s.773-.44 1.24-.56a5.55 5.55 0 013.32.16 3.05 3.05 0 011.52 1.12l-1.6 1.44zm5.686 2.98c.08.72.36 1.28.84 1.68.48.4 1.06.6 1.74.6.6 0 1.1-.12 1.5-.36a4.263 4.263 0 001.08-.94l1.72 1.3c-.56.693-1.186 1.187-1.88 1.48-.693.293-1.42.44-2.18.44-.72 0-1.4-.12-2.04-.36a4.896 4.896 0 01-1.66-1.02 5.009 5.009 0 01-1.12-1.58 5.271 5.271 0 01-.4-2.08c0-.76.134-1.447.4-2.06.28-.627.654-1.16 1.12-1.6.467-.44 1.02-.78 1.66-1.02.64-.24 1.32-.36 2.04-.36.667 0 1.274.12 1.82.36.56.227 1.034.56 1.42 1 .4.44.707.987.92 1.64.227.64.34 1.38.34 2.22v.66h-7.32zm4.92-1.8c-.013-.707-.233-1.26-.66-1.66-.426-.413-1.02-.62-1.78-.62-.72 0-1.293.207-1.72.62-.413.413-.666.967-.76 1.66h4.92z" fill="#212353"/><rect y="15" width="20" height="20" rx="10" fill="#9C69E2"/><rect x="29" width="20" height="35" rx="10" fill="#F063B8"/></svg>