<svg width="443" height="358" fill="none" xmlns="http://www.w3.org/2000/svg"><path opacity=".1" d="M53.29 41.735C57.328 17.647 78.178 0 102.603 0h289.682c27.614 0 50 22.386 50 50v258c0 27.614-22.386 50-50 50H59.362c-30.915 0-54.422-27.775-49.312-58.265l43.24-258z" fill="#68C9BA"/><path d="M410.012 94.03c25.725 29.177-4.65 57.351-58.111 58.111C245.615 145.137 221.63 51.007 229.663 29.903c8.032-21.105 31.951-21.681 67.39 21.312s80.804 6.342 112.959 42.814z" stroke="#fff" stroke-width="1.5"/><path d="M321.391 65.11c-1.945 5.143-10.577 6.644-19.28 3.352-8.704-3.292-14.182-10.13-12.237-15.272 1.945-5.143 10.578-6.644 19.281-3.352 8.703 3.292 14.181 10.13 12.236 15.273z" stroke="#fff" stroke-width="1.5"/></svg>